#!OML:ASF F:\VICON\USERDATA\INSTALL\Justin_Nancy\Justin_Nancy.ASF
:FULLY-SPECIFIED
:DEGREES
96
root 9.35373 17.6593 -14.7284 -1.67298 -1.69941 3.61014
lowerback 7.47533 0.071402 -3.31053
upperback 0.474868 -0.131493 1.35639
thorax -3.69189 -0.000776672 3.28431
lowerneck -16.3507 -4.22995 -10.3732
upperneck 21.0849 -4.53222 5.85252
head 9.76679 -2.28901 3.16779
rclavicle -5.56597e-015 4.77083e-015
rhumerus -31.7579 -14.8105 -77.4668
rradius 31.4858
rwrist 8.43986
rhand -12.675 12.9222
rfingers 7.12502
rthumb 13.4064 -16.6264
lclavicle -5.56597e-015 4.77083e-015
lhumerus -32.5725 14.7949 80.8643
lradius 22.3468
lwrist -13.3243
lhand -14.1028 26.685
lfingers 7.12502
lthumb 12.03 56.3193
rfemur -19.6396 -4.49423 19.9669
rtibia 73.0938
rfoot 3.40862 -6.29353
rtoes 13.1099
lfemur -10.4207 0.411144 -24.6095
ltibia 20.6984
lfoot -6.58319 -1.5549
ltoes -0.0588568
97
root 9.34591 17.6617 -14.5897 -1.55737 -1.07953 4.17206
lowerback 7.3685 -0.175454 -3.86034
upperback 0.494794 -0.507015 1.23299
thorax -3.57728 -0.182208 3.50421
lowerneck -16.7116 -4.20773 -10.1923
upperneck 21.3179 -4.4651 5.63313
head 9.90114 -2.2652 3.06855
rclavicle -2.33572e-015 -3.97569e-015
rhumerus -31.864 -15.1796 -77.3595
rradius 31.2829
rwrist 8.52229
rhand -12.3488 12.6681
rfingers 7.12502
rthumb 13.7209 -16.8596
lclavicle -2.33572e-015 -3.97569e-015
lhumerus -31.9285 14.6274 80.9797
lradius 22.528
lwrist -12.9942
lhand -13.7874 27.8583
lfingers 7.12502
lthumb 12.3341 57.4745
rfemur -20.8097 -5.50395 19.2633
rtibia 73.1375
rfoot 2.12851 -6.66986
rtoes 13.2188
lfemur -10.2215 0.233944 -25.2871
ltibia 21.082
lfoot -7.10755 -1.77172
ltoes -0.261478
98
root 9.34608 17.6598 -14.4428 -1.56428 -1.04495 4.41537
lowerback 7.31735 -0.192062 -4.01308
upperback 0.565279 -0.541413 1.16412
thorax -3.47162 -0.201143 3.52097
lowerneck -16.9914 -4.23097 -10.1028
upperneck 21.5375 -4.48836 5.58761
head 10.0304 -2.2722 3.03427
rclavicle -7.00716e-015 -4.77083e-015
rhumerus -32.1277 -15.8143 -77.1187
rradius 31.1275
rwrist 8.35206
rhand -11.8968 13.3329
rfingers 7.12502
rthumb 14.1564 -16.1648
lclavicle -7.00716e-015 -4.77083e-015
lhumerus -31.3189 13.9434 81.3597
lradius 22.5842
lwrist -11.7911
lhand -14.7338 27.9704
lfingers 7.12502
lthumb 11.4215 57.6393
rfemur -21.8269 -5.89111 18.9169
rtibia 72.9658
rfoot 1.03578 -6.55063
rtoes 13.7574
lfemur -9.89336 0.119039 -25.5945
ltibia 21.5435
lfoot -7.80081 -1.44082
ltoes -0.281779
99
root 9.34655 17.6395 -14.3066 -1.72888 -1.49171 4.63181
lowerback 7.43777 -0.103075 -4.15037
upperback 0.669966 -0.43951 1.11704
thorax -3.43888 -0.151465 3.53986
lowerneck -17.0138 -4.17365 -10.1538
upperneck 21.5557 -4.42639 5.72511
head 10.0397 -2.2321 3.10102
rclavicle -7.25564e-015 -1.59028e-015
rhumerus -32.3904 -16.1795 -76.9562
rradius 31.0155
rwrist 8.20462
rhand -11.7317 13.7429
rfingers 7.12502
rthumb 14.3156 -15.7436
lclavicle -7.25564e-015 -1.59028e-015
lhumerus -30.799 13.6205 81.5806
lradius 22.5164
lwrist -10.7323
lhand -16.1892 26.4206
lfingers 7.12502
lthumb 10.0177 56.1622
rfemur -22.8424 -5.78106 18.6452
rtibia 72.6797
rfoot 0.0240466 -6.13086
rtoes 13.6148
lfemur -9.48095 0.249252 -25.8708
ltibia 22.0444
lfoot -8.45328 -0.917049
ltoes 0.0743702
100
root 9.33976 17.6107 -14.1744 -1.83937 -1.68396 4.62257
lowerback 7.58973 -0.112383 -4.14249
upperback 0.686889 -0.455287 1.1735
thorax -3.50454 -0.157786 3.59756
lowerneck -16.9702 -4.11126 -10.1146
upperneck 21.5721 -4.33608 5.64785
head 10.0265 -2.19704 3.08036
rclavicle -7.95139e-015 6.36111e-015
rhumerus -32.7219 -16.3149 -76.8017
rradius 30.8947
rwrist 8.01354
rhand -11.9233 13.6677
rfingers 7.12502
rthumb 14.1309 -15.8317
lclavicle -7.95139e-015 6.36111e-015
lhumerus -30.477 14.1556 81.2925
lradius 22.8102
lwrist -12.7029
lhand -13.6179 27.6099
lfingers 7.12502
lthumb 12.4976 57.2162
rfemur -23.8576 -5.79334 18.7142
rtibia 72.2264
rfoot -0.969341 -5.88526
rtoes 12.1431
lfemur -9.21155 0.468261 -25.878
ltibia 22.7199
lfoot -9.11954 -0.644078
ltoes -0.00744372
101
root 9.32926 17.5951 -14.0356 -1.83219 -1.61459 4.40228
lowerback 7.52353 -0.195466 -3.88655
upperback 0.697536 -0.539094 1.24202
thorax -3.45022 -0.204203 3.53192
lowerneck -16.7823 -4.08485 -10.0553
upperneck 21.4681 -4.33664 5.6635
head 9.95267 -2.1923 3.07634
rclavicle -5.36719e-015 -1.03368e-014
rhumerus -33.0174 -16.676 -76.6455
rradius 30.6958
rwrist 7.86728
rhand -12.2212 13.2401
rfingers 7.12502
rthumb 13.8439 -16.2792
lclavicle -5.36719e-015 -1.03368e-014
lhumerus -30.0644 12.8138 81.9373
lradius 22.1856
lwrist -8.046
lhand -19.4555 21.7617
lfingers 7.12502
lthumb 6.86551 51.6304
rfemur -24.7273 -5.99034 19.0321
rtibia 71.5165
rfoot -2.22292 -5.84965
rtoes 11.1254
lfemur -9.09424 0.626768 -25.6534
ltibia 23.5337
lfoot -9.91131 -0.510545
ltoes -1.21364
102
root 9.31905 17.5821 -13.9041 -1.84831 -1.50457 4.52339
lowerback 7.57143 -0.284452 -4.00796
upperback 0.853226 -0.66613 1.28403
thorax -3.30198 -0.271714 3.65648
lowerneck -17.2875 -4.07456 -10.1479
upperneck 21.5966 -4.2595 5.71995
head 10.0902 -2.15164 3.12038
rclavicle 9.44227e-015 7.95139e-015
rhumerus -32.9883 -16.7993 -76.6065
rradius 30.6279
rwrist 7.55867
rhand -12.3096 12.7088
rfingers 7.12502
rthumb 13.7586 -16.8163
lclavicle 9.44227e-015 7.95139e-015
lhumerus -29.2898 12.7 82.1168
lradius 22.8221
lwrist -9.36451
lhand -16.9057 26.0465
lfingers 7.12502
lthumb 9.32634 55.8202
rfemur -25.5394 -6.18326 18.9175
rtibia 70.657
rfoot -3.71307 -5.82496
rtoes 9.9164
lfemur -8.98411 0.631837 -25.7944
ltibia 24.3659
lfoot -10.7067 -0.230286
ltoes -1.31098
103
root 9.30436 17.5559 -13.7778 -1.77228 -1.50953 4.61775
lowerback 7.72402 -0.378828 -4.19102
upperback 1.23931 -0.802511 1.45446
thorax -2.96848 -0.352127 3.9499
lowerneck -19.2263 -4.28445 -10.5591
upperneck 22.1073 -4.25396 5.81224
head 10.6543 -2.14961 3.2151
rclavicle 5.76476e-015 1.59028e-015
rhumerus -32.2264 -16.758 -76.7043
rradius 30.5662
rwrist 7.08051
rhand -12.4264 12.0899
rfingers 7.12502
rthumb 13.646 -17.4428
lclavicle 5.76476e-015 1.59028e-015
lhumerus -27.822 12.7614 82.6568
lradius 23.0382
lwrist -9.4225
lhand -16.5832 27.7339
lfingers 7.12502
lthumb 9.63753 57.4934
rfemur -26.5024 -6.27192 18.8688
rtibia 69.6713
rfoot -4.87016 -5.66736
rtoes 8.9183
lfemur -8.96845 0.634774 -25.861
ltibia 25.0392
lfoot -11.32 0.0227473
ltoes -0.904761
104
root 9.29036 17.5278 -13.6454 -1.60255 -1.55357 4.62427
lowerback 7.56725 -0.361887 -4.19759
upperback 0.921932 -0.780152 1.3916
thorax -3.21365 -0.328904 3.88672
lowerneck -17.7593 -4.23827 -10.2794
upperneck 21.5855 -4.41193 5.76942
head 10.1937 -2.21948 3.13346
rclavicle 3.0911e-014 -1.82882e-014
rhumerus -33.2315 -17.044 -76.4745
rradius 30.5513
rwrist 6.70271
rhand -12.0912 11.9228
rfingers 7.12502
rthumb 13.9691 -17.5879
lclavicle 3.0911e-014 -1.82882e-014
lhumerus -27.8765 12.2064 82.4531
lradius 23.3061
lwrist -10.4249
lhand -14.7326 29.0142
lfingers 7.12502
lthumb 11.4226 58.683
rfemur -27.4947 -6.29823 18.9458
rtibia 68.4784
rfoot -5.64497 -5.48206
rtoes 7.79131
lfemur -8.98327 0.615628 -25.8456
ltibia 25.5565
lfoot -11.9943 0.184227
ltoes -1.38482
105
root 9.28138 17.5031 -13.5081 -1.49547 -1.41696 4.99269
lowerback 7.48823 -0.471749 -4.53857
upperback 0.739012 -0.95659 1.31298
thorax -3.33813 -0.405808 4.01599
lowerneck -16.9791 -4.14469 -10.1383
upperneck 21.2211 -4.37963 5.70874
head 9.90874 -2.20776 3.09493
rclavicle -1.00883e-014 -2.54444e-014
rhumerus -33.8416 -17.0916 -76.2787
rradius 30.3928
rwrist 6.35657
rhand -11.4215 12.5543
rfingers 7.12502
rthumb 14.6144 -16.9108
lclavicle -1.00883e-014 -2.54444e-014
lhumerus -27.7134 11.8779 82.3692
lradius 23.459
lwrist -11.1431
lhand -14.038 29.0826
lfingers 7.12502
lthumb 12.0924 58.7132
rfemur -28.2985 -6.62466 18.5166
rtibia 67.0887
rfoot -6.41184 -5.27522
rtoes 6.68483
lfemur -8.89927 0.722894 -26.2703
ltibia 26.0989
lfoot -12.8171 0.150404
ltoes -2.69298
106
root 9.26872 17.4845 -13.3759 -1.55778 -1.38267 5.29261
lowerback 7.83708 -0.517123 -4.82247
upperback 0.671337 -1.06018 1.27078
thorax -3.58904 -0.444999 4.1513
lowerneck -16.8947 -4.13451 -10.1691
upperneck 21.1112 -4.3834 5.79333
head 9.85675 -2.20251 3.129
rclavicle -8.05078e-015 1.66979e-014
rhumerus -34.2182 -17.1165 -76.1378
rradius 30.2888
rwrist 6.04072
rhand -11.1381 12.8762
rfingers 7.12502
rthumb 14.8874 -16.5688
lclavicle -8.05078e-015 1.66979e-014
lhumerus -27.4396 11.2351 82.5193
lradius 23.6768
lwrist -11.1332
lhand -14.3779 27.6587
lfingers 7.12502
lthumb 11.7647 57.3083
rfemur -28.8214 -6.85855 18.171
rtibia 65.4353
rfoot -7.11237 -5.15644
rtoes 4.12573
lfemur -8.49218 0.714302 -26.6094
ltibia 26.5395
lfoot -13.6092 0.453813
ltoes -3.84493
107
root 9.24788 17.4714 -13.2429 -1.55976 -1.57097 5.02421
lowerback 8.01308 -0.534484 -4.64424
upperback 0.604697 -1.07091 1.42398
thorax -3.75619 -0.445891 4.21675
lowerneck -16.6797 -4.11569 -10.2854
upperneck 20.9773 -4.3698 5.89778
head 9.77322 -2.19576 3.1875
rclavicle 1.49089e-015 -1.82882e-014
rhumerus -34.5401 -17.0922 -76.0395
rradius 30.172
rwrist 5.82011
rhand -11.4346 13.4059
rfingers 7.12502
rthumb 14.6018 -16.06
lclavicle 1.49089e-015 -1.82882e-014
lhumerus -27.2 11.024 82.5765
lradius 23.9137
lwrist -11.7578
lhand -13.7181 27.3263
lfingers 7.12502
lthumb 12.4009 56.9385
rfemur -29.3019 -6.71203 18.5537
rtibia 63.5351
rfoot -5.40889 -7.15642
rtoes 8.18939
lfemur -8.05354 0.744316 -26.2612
ltibia 26.84
lfoot -14.2745 0.720341
ltoes -4.10535
108
root 9.22335 17.4585 -13.1096 -1.50599 -1.68652 4.91596
lowerback 8.05874 -0.587958 -4.67474
upperback 0.523579 -1.14327 1.54577
thorax -3.85566 -0.475867 4.37191
lowerneck -16.4944 -4.04313 -10.2363
upperneck 20.9174 -4.28733 5.84407
head 9.70749 -2.16199 3.17255
rclavicle -1.02871e-014 -1.03368e-014
rhumerus -34.8544 -17.3846 -75.7567
rradius 29.646
rwrist 5.82383
rhand -11.8122 14.9484
rfingers 7.12502
rthumb 14.238 -14.5436
lclavicle -1.02871e-014 -1.03368e-014
lhumerus -26.8271 10.8643 82.6078
lradius 23.7333
lwrist -12.107
lhand -14.7741 27.291
lfingers 7.12502
lthumb 11.3826 56.9621
rfemur -29.7342 -6.56369 18.7646
rtibia 61.488
rfoot -7.71475 -6.30613
rtoes 6.25056
lfemur -7.71772 0.724387 -26.075
ltibia 27.0615
lfoot -14.8194 0.881979
ltoes -3.08668
109
root 9.20597 17.4494 -12.9835 -1.3607 -1.75307 4.97741
lowerback 8.24091 -0.637714 -4.74304
upperback 0.452961 -1.22326 1.59078
thorax -4.02046 -0.507629 4.47238
lowerneck -16.7895 -3.97812 -10.1907
upperneck 21.0383 -4.18506 5.86087
head 9.79485 -2.10606 3.1845
rclavicle 6.4605e-015 1.43125e-014
rhumerus -35.0669 -17.506 -75.6233
rradius 29.8214
rwrist 6.68739
rhand -11.4464 13.8783
rfingers 7.12502
rthumb 14.5904 -15.5885
lclavicle 6.4605e-015 1.43125e-014
lhumerus -26.3361 10.208 82.8777
lradius 23.8973
lwrist -11.1669
lhand -16.7365 27.1996
lfingers 7.12502
lthumb 9.48957 56.966
rfemur -30.2324 -6.49434 18.7345
rtibia 59.3042
rfoot -8.87359 -6.75305
rtoes 5.06622
lfemur -7.4612 0.625289 -26.1413
ltibia 27.2511
lfoot -15.3267 1.33567
ltoes -0.853975
